# xmcd CD database file
#
# Track frame offsets:
#	150
#	50312
#	99855
#	147819
#	192748
#
# Disc length: 3157 seconds
#
# Revision: 1
# Processed by: cddbd v1.5.1PL2 Copyright (c) Steve Scherf et al.
# Submitted via: CDex 1.51
#
DISCID=3e0c5305
DTITLE=Matthias Frey - Feng Shui
DYEAR=2003
DGENRE=Synthpop
TTITLE0=Metall
TTITLE1=Erde
TTITLE2=Holz
TTITLE3=Feuer
TTITLE4=Wasser
EXTD=YEAR: 2003
EXTT0=
EXTT1=
EXTT2=
EXTT3=
EXTT4=
PLAYORDER=
